<svg xmlns="http://www.w3.org/2000/svg" width="24" height="24" viewBox="0 0 24 24">
  <g id="facebook_black.1" data-name="facebook black.1" transform="translate(-0.209)">
    <rect id="Rectangle" width="24" height="24" transform="translate(0.209)" fill="none"/>
    <path id="Facebook" d="M9.614,18H.993A.993.993,0,0,1,0,17.006V.993A.993.993,0,0,1,.993,0H17.007A.993.993,0,0,1,18,.993V17.006a.994.994,0,0,1-.993.994H12.42V11.029h2.34l.35-2.717H12.42V6.578c0-.787.218-1.322,1.346-1.322H15.2V2.826a19.229,19.229,0,0,0-2.1-.107A3.273,3.273,0,0,0,9.614,6.309v2H7.269v2.717H9.614V18Z" transform="translate(4.329 3.369)" fill="#0b0d0e"/>
  </g>
</svg>
