<svg xmlns="http://www.w3.org/2000/svg" width="24" height="24" viewBox="0 0 24 24">
  <g id="googleplus_black.1" data-name="googleplus black.1" transform="translate(-0.209)">
    <rect id="Rectangle" width="24" height="24" transform="translate(0.209)" fill="none"/>
    <path id="GooglePlus" d="M5.717,11A5.618,5.618,0,0,1,0,5.5,5.618,5.618,0,0,1,5.717,0,5.834,5.834,0,0,1,9.564,1.431,17.316,17.316,0,0,0,8.312,2.649c-.11.119-.214.231-.376.386a3.33,3.33,0,0,0-2.219-.8,3.268,3.268,0,1,0,0,6.534A2.815,2.815,0,0,0,8.807,6.586h-.65l-2.44,0V4.411h5.491A6.294,6.294,0,0,1,9.937,9.287,5.3,5.3,0,0,1,5.717,11Zm10.3-3.158H14.6V5.881H12.566V4.52H14.6V2.614h1.416V4.52H18V5.881H16.019v1.96Z" transform="translate(3.209 7)" fill="#0b0d0e"/>
  </g>
</svg>
