<svg xmlns="http://www.w3.org/2000/svg" width="24" height="24" viewBox="0 0 24 24">
  <g id="instagram_black.1" data-name="instagram black.1" transform="translate(-0.209)">
    <rect id="Rectangle" width="24" height="24" transform="translate(0.209)" fill="none"/>
    <path id="Instagram" d="M9,18c-2.443,0-2.76-.01-3.711-.054A6.619,6.619,0,0,1,3.1,17.528,4.4,4.4,0,0,1,1.51,16.49,4.4,4.4,0,0,1,.472,14.9a6.619,6.619,0,0,1-.419-2.185C.01,11.76,0,11.443,0,9S.01,6.24.054,5.289A6.617,6.617,0,0,1,.472,3.105,4.4,4.4,0,0,1,1.51,1.511,4.42,4.42,0,0,1,3.1.473,6.645,6.645,0,0,1,5.289.055C6.255.01,6.576,0,9,0s2.744.01,3.711.055A6.643,6.643,0,0,1,14.9.473a4.415,4.415,0,0,1,1.594,1.039,4.414,4.414,0,0,1,1.039,1.594,6.643,6.643,0,0,1,.418,2.184C17.99,6.256,18,6.576,18,9s-.01,2.745-.055,3.711a6.645,6.645,0,0,1-.418,2.185A4.6,4.6,0,0,1,14.9,17.528a6.617,6.617,0,0,1-2.184.418C11.759,17.99,11.442,18,9,18ZM9,1.622c-2.407,0-2.691.009-3.637.052a4.981,4.981,0,0,0-1.671.311,2.782,2.782,0,0,0-1.035.673,2.783,2.783,0,0,0-.673,1.035,4.963,4.963,0,0,0-.31,1.67C1.63,6.326,1.621,6.613,1.621,9s.009,2.675.053,3.637a4.965,4.965,0,0,0,.31,1.671,2.783,2.783,0,0,0,.673,1.035,2.8,2.8,0,0,0,1.035.673,4.965,4.965,0,0,0,1.671.31c.962.044,1.249.053,3.637.053s2.674-.009,3.637-.053a4.963,4.963,0,0,0,1.67-.31,2.979,2.979,0,0,0,1.708-1.708,4.982,4.982,0,0,0,.311-1.671c.043-.946.052-1.23.052-3.637s-.009-2.69-.052-3.637a4.979,4.979,0,0,0-.311-1.67,2.783,2.783,0,0,0-.673-1.035,2.783,2.783,0,0,0-1.035-.673,4.979,4.979,0,0,0-1.67-.311C11.69,1.631,11.406,1.622,9,1.622Zm0,12A4.622,4.622,0,1,1,13.622,9,4.627,4.627,0,0,1,9,13.622ZM9,6a3,3,0,1,0,3,3A3,3,0,0,0,9,6Zm4.8-.725a1.08,1.08,0,1,1,1.08-1.08A1.081,1.081,0,0,1,13.8,5.276Z" transform="translate(3.209 3)" fill="#0b0d0e"/>
  </g>
</svg>
