<svg xmlns="http://www.w3.org/2000/svg" width="24" height="24" viewBox="0 0 24 24">
  <g id="linkedin_black.1" data-name="linkedin black.1" transform="translate(-0.209)">
    <rect id="Rectangle" width="24" height="24" transform="translate(0.209)" fill="none"/>
    <path id="LinkedIn" d="M10.046,16H6.1c0-.086.05-9.966,0-10.868h3.941V6.837c.235-.752,1.479-1.811,3.5-1.811a4.317,4.317,0,0,1,3.161,1.2A5.171,5.171,0,0,1,18,9.956V16H14.022V10.375c0-1.6-.707-2.478-1.991-2.478A1.927,1.927,0,0,0,10.045,10c0,.039,0,.079,0,.119V16ZM3.963,16H.454V5.131H3.963V16ZM2.119,3.772H2.093A1.931,1.931,0,0,1,0,1.887,1.939,1.939,0,0,1,2.143,0,1.931,1.931,0,0,1,4.259,1.884,1.937,1.937,0,0,1,2.119,3.772Z" transform="translate(3.209 4)" fill="#0b0d0e"/>
  </g>
</svg>
