<svg xmlns="http://www.w3.org/2000/svg" width="24" height="24" viewBox="0 0 24 24">
  <g id="pinterest_color.1" data-name="pinterest color.1" transform="translate(-0.209)">
    <rect id="Rectangle" width="24" height="24" transform="translate(0.209)" fill="none"/>
    <path id="Pinterest" d="M18,9a9,9,0,0,1-11.55,8.63A7.507,7.507,0,0,0,7.356,15.7c.11-.4.633-2.473.633-2.473a2.583,2.583,0,0,0,2.2,1.121c2.895,0,4.857-2.637,4.857-6.168a5.381,5.381,0,0,0-5.7-5.156c-4.276,0-6.432,3.067-6.432,5.623a3.465,3.465,0,0,0,1.844,3.439.31.31,0,0,0,.45-.225c.041-.158.141-.558.183-.722a.437.437,0,0,0-.129-.5,2.6,2.6,0,0,1-.593-1.765A4.261,4.261,0,0,1,9.1,4.564c2.416,0,3.745,1.476,3.745,3.448,0,2.6-1.148,4.785-2.853,4.785a1.393,1.393,0,0,1-1.42-1.734A19.383,19.383,0,0,0,9.365,7.87,1.206,1.206,0,0,0,8.151,6.519c-.962,0-1.736,1-1.736,2.33A3.466,3.466,0,0,0,6.7,10.273s-.984,4.173-1.158,4.9a7.964,7.964,0,0,0-.156,2.067A9,9,0,1,1,18,9Z" transform="translate(4.329 3.369)" fill="#0b0d0e"/>
  </g>
</svg>
