<svg xmlns="http://www.w3.org/2000/svg" width="24" height="24" viewBox="0 0 24 24">
  <g id="twitter_black.1" data-name="twitter black.1" transform="translate(-0.209)">
    <rect id="Rectangle" width="24" height="24" transform="translate(0.209)" fill="none"/>
    <path id="Twitter" d="M16.158,3.736c.006.161.01.326.01.491,0,5-3.714,10.774-10.507,10.774A10.282,10.282,0,0,1,0,13.3a7.391,7.391,0,0,0,.881.052A7.292,7.292,0,0,0,5.468,11.73,3.707,3.707,0,0,1,2.018,9.1a3.587,3.587,0,0,0,.7.067,3.521,3.521,0,0,0,.973-.133A3.765,3.765,0,0,1,.723,5.323V5.276A3.626,3.626,0,0,0,2.4,5.749,3.812,3.812,0,0,1,.753,2.6a3.855,3.855,0,0,1,.5-1.906A10.4,10.4,0,0,0,8.865,4.649a3.864,3.864,0,0,1-.1-.862A3.741,3.741,0,0,1,12.462,0a3.642,3.642,0,0,1,2.7,1.2A7.273,7.273,0,0,0,17.5.277,3.778,3.778,0,0,1,15.88,2.372a7.213,7.213,0,0,0,2.12-.6,7.579,7.579,0,0,1-1.842,1.96Z" transform="translate(4.329 5.369)" fill="#0b0d0e"/>
  </g>
</svg>
