<svg xmlns="http://www.w3.org/2000/svg" width="24" height="24" viewBox="0 0 24 24">
  <g id="youtube_color.1" data-name="youtube color.1" transform="translate(-0.209)">
    <rect id="Rectangle" width="24" height="24" transform="translate(0.209)" fill="none"/>
    <path id="Youtube" d="M9,13H9c-.047,0-4.7-.046-6.12-.186-.068-.013-.15-.023-.244-.035A2.616,2.616,0,0,1,.9,12.024,4.092,4.092,0,0,1,.18,10.189,28.866,28.866,0,0,1,0,7.2V5.8A28.966,28.966,0,0,1,.18,2.8,4.089,4.089,0,0,1,.9.969,2.447,2.447,0,0,1,2.586.2L2.7.187C5.189,0,8.959,0,9,0H9c.038,0,3.807,0,6.3.187L15.415.2A2.444,2.444,0,0,1,17.1.969,4.077,4.077,0,0,1,17.82,2.8,28.919,28.919,0,0,1,18,5.8V7.2a28.917,28.917,0,0,1-.18,2.992,4.085,4.085,0,0,1-.715,1.835,2.448,2.448,0,0,1-1.687.771l-.116.012C12.805,12.993,9.038,13,9,13ZM7.141,3.7V8.9L12,6.309,7.141,3.7Z" transform="translate(3.209 6)" fill="#0b0d0e"/>
  </g>
</svg>
