<svg xmlns="http://www.w3.org/2000/svg" width="17.283" height="18.323" viewBox="0 0 17.283 18.323">
  <path id="Path_201154" data-name="Path 201154" d="M248.993,159.743a7.212,7.212,0,0,0-4.9-4.374,9.544,9.544,0,0,0-11.815,7.835,9.29,9.29,0,0,0,1.294,6.506,8.91,8.91,0,0,0,6.123,3.564,7.922,7.922,0,0,0,1.339.1,9.847,9.847,0,0,0,6.279-2.2.616.616,0,1,0-.783-.95,8.852,8.852,0,0,1-6.615,1.838,7.745,7.745,0,0,1-5.319-3.037,8.422,8.422,0,0,1,3.907-12.078.588.588,0,0,0,.058-.023,8.345,8.345,0,0,1,5.19-.371,5.965,5.965,0,0,1,4.079,3.584c.006.018.013.038.02.056a7.068,7.068,0,0,1-.019,4.485,3.913,3.913,0,0,1-2.91,2.78c-.567.05-1.3.025-1.608-.382a2.078,2.078,0,0,1,0-1.671l1.906-5.24a.616.616,0,1,0-1.157-.421l-.115.317-.01-.015a2.841,2.841,0,0,0-2.219-.891c-2.883-.043-4.51,4.1-4.582,4.293-.1.275-.933,2.729.083,4.176a2.4,2.4,0,0,0,2.087.971h.025a3.95,3.95,0,0,0,2.684-1.385,2.061,2.061,0,0,0,.3.6,2.859,2.859,0,0,0,2.737.872A5.126,5.126,0,0,0,249,165.052a8.235,8.235,0,0,0-.008-5.309Zm-9.664,7.619c-.789,0-1.025-.336-1.1-.447-.552-.783-.124-2.511.063-3.04.373-.974,1.7-3.489,3.385-3.489h.024a1.689,1.689,0,0,1,1.3.456,1.455,1.455,0,0,1,.3,1l-1,2.74c-1.3,2.745-2.9,2.782-2.973,2.782Z" transform="translate(-232.146 -155.05)"/>
</svg>
