<svg xmlns="http://www.w3.org/2000/svg" width="19.103" height="19.103" viewBox="0 0 19.103 19.103">
  <g id="Group_37666" data-name="Group 37666" transform="translate(21995.684 -2371.719)">
    <path id="Path_201152" data-name="Path 201152" d="M109,20.051h-13.2A2.857,2.857,0,0,0,92.953,22.9V36.1a2.857,2.857,0,0,0,2.853,2.853H109a2.857,2.857,0,0,0,2.853-2.853V22.9A2.857,2.857,0,0,0,109,20.051ZM93.8,22.9a2.007,2.007,0,0,1,2.005-2H109a2.007,2.007,0,0,1,2.005,2v9.461l-2.987-2.654a.423.423,0,0,0-.589.024l-2.816,2.956-2.771-2.954a.424.424,0,0,0-.307-.134h0a.425.425,0,0,0-.307.131l-7.11,7.439A1.988,1.988,0,0,1,93.8,36.1Zm.913,14.874,6.818-7.134,7,7.461H95.807a1.99,1.99,0,0,1-1.092-.328ZM109.6,38l-4.4-4.694,2.567-2.694,3.244,2.882v2.6A2,2,0,0,1,109.6,38Z" transform="translate(-22088.537 2351.768)" fill="#11131e" stroke="#11131e" stroke-width="0.2"/>
    <path id="Path_201153" data-name="Path 201153" d="M338.371,121.752a2.1,2.1,0,1,0-1.483-.615,2.1,2.1,0,0,0,1.483.615Zm0-3.348h0a1.251,1.251,0,1,1-.884.367,1.25,1.25,0,0,1,.884-.367Z" transform="translate(-22323.01 2257.809)" fill="#11131e" stroke="#11131e" stroke-width="0.2"/>
  </g>
</svg>
