<svg id="send" xmlns="http://www.w3.org/2000/svg" width="19.711" height="19.119" viewBox="0 0 19.711 19.119">
  <path id="Path" d="M18.7.161c.746-.391,1.176-.046.955.767L15.733,15.335a1.329,1.329,0,0,1-1.838.87l-2.572-1.047c-.781-.317-2.061-.828-2.847-1.132L8.2,13.92a.962.962,0,0,1-.379-1.671l7.96-8.52c.575-.615.5-.692-.158-.172L5.558,11.5a2.971,2.971,0,0,1-2.632.377L.608,10.957c-.783-.31-.814-.883-.067-1.275Z" transform="translate(0 0)"/>
  <path id="Path-2" data-name="Path" d="M.116.948C-.207.169.167-.2.946.114L2.726.842a1.221,1.221,0,0,1,.58,1.864S1.674,5.206,1.72,5.069.116.948.116.948Z" transform="translate(5.184 14.045)"/>
</svg>
